<svg id="Layer_1" data-name="Layer 1" xmlns="http://www.w3.org/2000/svg" viewBox="0 0 14.78 21.17"><defs><style>.cls-1{fill:#49aa26;}</style></defs><path class="cls-1" d="M14,14.11a4,4,0,0,1-.68,2.2A5.11,5.11,0,0,1,11.33,18a7.62,7.62,0,0,1-3,.85v1.89H6.52V18.89A7.89,7.89,0,0,1,2.39,17.5,3.66,3.66,0,0,1,.82,14.41H4.13a2.41,2.41,0,0,0,.68,1.52,3,3,0,0,0,1.71.75V11.53a26.68,26.68,0,0,1-3-.79A4.93,4.93,0,0,1,1.61,9.42,3.5,3.5,0,0,1,.82,7,3.93,3.93,0,0,1,2.39,3.78a7.3,7.3,0,0,1,4.13-1.5V.38H8.29v1.9a6.91,6.91,0,0,1,3.82,1.31,4.15,4.15,0,0,1,1.66,3.05H10.46a2.11,2.11,0,0,0-.65-1.29,3,3,0,0,0-1.52-.8V9.61a21,21,0,0,1,3,.8,4.4,4.4,0,0,1,1.93,1.29A3.42,3.42,0,0,1,14,14.11ZM4,6.85a1.85,1.85,0,0,0,.65,1.5,5.26,5.26,0,0,0,1.9.86V4.48a3.26,3.26,0,0,0-1.87.73A2.09,2.09,0,0,0,4,6.85Zm4.32,9.83a3.24,3.24,0,0,0,1.87-.82,2.21,2.21,0,0,0,.68-1.61,1.71,1.71,0,0,0-.68-1.45,5,5,0,0,0-1.87-.87Z"/></svg>